<?xml version="1.0" encoding="utf-8"?>
<!-- Generator: Adobe Illustrator 23.0.0, SVG Export Plug-In . SVG Version: 6.00 Build 0)  -->
<svg version="1.1" id="Layer_1" xmlns="http://www.w3.org/2000/svg" xmlns:xlink="http://www.w3.org/1999/xlink" x="0px" y="0px"
	 viewBox="0 0 1000 1000" style="enable-background:new 0 0 1000 1000;" xml:space="preserve">
<style type="text/css">
	.st0{clip-path:url(#SVGID_2_);fill:#EFF6E9;}
	.st1{clip-path:url(#SVGID_2_);fill:#BE2926;}
	.st2{clip-path:url(#SVGID_2_);fill:#BE2A27;}
	.st3{clip-path:url(#SVGID_2_);fill:#9E3A08;}
	.st4{clip-path:url(#SVGID_2_);fill:#F49A73;}
	.st5{clip-path:url(#SVGID_2_);fill:#42B93A;}
	.st6{clip-path:url(#SVGID_2_);fill:#2B8839;}
	.st7{clip-path:url(#SVGID_2_);fill:#FFFFFF;}
	.st8{clip-path:url(#SVGID_4_);fill:#2B8839;}
</style>
<g>
	<defs>
		<rect id="SVGID_1_" width="1000" height="1000"/>
	</defs>
	<clipPath id="SVGID_2_">
		<use xlink:href="#SVGID_1_"  style="overflow:visible;"/>
	</clipPath>
	<path class="st0" d="M939.05,7.6c-25.97,177.92-51.94,355.84-77.91,533.76c-3.29-2.46-7.39-3.94-11.81-3.94
		c-10.89,0-19.74,8.85-19.74,19.74c0,3.32,0.83,6.44,2.29,9.2c-1.16,1.49-1.95,3.25-2.22,5.2l-0.88,6.6l0.39,0.28
		c-0.38,1.6-0.91,3.45-1.46,5.06l-0.12,0.34l-0.08,0.35c-0.14,0.47-3.03,11.12-5.61,22.3L820.3,609h-0.01
		c3.15-22.37-5.64-36.52-26.16-42.13c-2.04-0.55-4.18-0.84-6.36-0.84c-4.09,0-8.31,0.99-12.65,2.94c-1-0.69-2.14-1.3-3.37-1.83
		c-1.72-0.73-3.63-1.11-5.68-1.11c-5.44,0-12.41,2.83-15.14,4.05l-6.96,3.1l0.04,0.66c-2-1.8-4.61-2.82-7.39-2.82
		c-0.26,0-0.51,0-0.78,0.03h-2.87c-5.77,0.08-10.53,1.96-14.24,4.64c-1.91-0.6-3.67-0.79-5.16-0.79c-4.13,0-17.98,0.92-30.42,12.22
		l3.55-13.67c0.27-1.04,6.82-25.59,9.74-40.94c1.42-7.43-1.01-12.29-3.3-15.05c-2.38-2.88-6.97-6.32-15.35-6.32
		c-8.04,0-16.86,3.19-18.28,3.72c-6.25,2.27-7.59,7.21-7.88,9.24c-0.23,1.64-0.08,3.27,0.39,4.8c0.22,3.17-1.99,12.98-4.78,21.12
		l-0.11,0.34l-0.1,0.34c-0.04,0.14-3.02,11.13-6.56,25.36c-7.54,0.93-20.26,4.29-31.46,15.74c-5.48,5.6-10.16,13.64-13.61,22.04
		c-2.75-12.29-11.38-20.47-25.82-24.41c-2.04-0.55-4.18-0.84-6.36-0.84c-4.09,0-8.31,0.97-12.64,2.94c-1.02-0.69-2.14-1.3-3.38-1.83
		c-1.72-0.74-3.63-1.11-5.68-1.11c-5.44,0-12.41,2.83-15.14,4.05l-2.14,0.95c-2.07-2.94-5.41-4.67-9.05-4.67
		c-0.26,0-0.52,0-0.77,0.03h-2.88c-5.76,0.08-10.53,1.96-14.22,4.64c-1.91-0.6-3.67-0.79-5.16-0.79c-4.37,0-19.61,1.02-32.53,14.24
		c-4.8,4.91-8.63,11.49-11.45,18.05c0.68-18.38-8.04-30.29-25.98-35.44c1.76-4.63,3.13-8.24,3.72-9.81
		c10.49-18.11,20.2-48.62,20.66-50.04c0.42-1.42,3.94-14.09-4.64-23.44c-5.4-5.89-13.15-8.88-23.07-8.88
		c-4.1,0-7.77,1.57-10.35,4.41c-1.3,1.45-2.25,3.18-2.83,5.05c0.33-1.87,0.64-3.75,0.91-5.63l0.16-1.14l-0.08-1.15
		c-4.93-69.53-41.48-77.04-56.96-77.04c-7.17,0-12.19,1.49-13.13,1.79l-14.7,4.68l9.4,12.23c0.24,0.31,0.49,0.64,0.74,0.99
		l-4.82,1.89c0.89,2.3,1.6,4.75,2.14,7.32l-3.96,1.04c1.42,5.64,1.87,12.08,1.33,19.17c-0.47,6.33-1.66,12.98-3.61,20.23
		c-3.53,12.54-8.89,25.64-16.42,40.06c-6.4,12.41-13.83,24.85-22.72,38.01c-4.05,6.01-8.39,12.14-12.91,18.21
		c-4.2,5.7-8.05,10.69-11.69,15.18h-0.03c10.15-26.14,17.21-48.3,17.74-49.99c0.3-0.97,7.06-24.02-7.5-39.91
		c-9.54-10.41-23.75-15.68-42.23-15.68c-6.89,0-11.04,2.99-13.3,5.49c-3.83,4.24-4.11,9.71-4.26,11.75
		c-0.58,7.66-30.81,73.6-42.33,91.7L60.95,21.14C149.6,106.57,238.25,192,326.91,277.43C381.78,184.3,436.26,91.83,490.36,0
		c56.21,94.85,112.85,190.39,169.89,286.62C753.18,193.61,846.11,100.61,939.05,7.6"/>
	<path class="st0" d="M441.43,56.27l-32.02,52.63l-30.54,49.68l-29.11,47.07l-27.8,44.66l-0.74,1.21l-1.12-1.07
		c-16.1-15.4-32.42-31.19-49.03-47.3l-51.64-50.02l-54.39-53.16c-18.8-18.46-37.96-37.27-57.42-56.59
		c19.81,18.58,39.18,36.97,58.19,55l54.89,52.34l51.84,49.85c16.29,15.66,32.3,31.07,47.97,46.34l27.19-43.34l29.51-46.74
		l31.17-49.07L441.43,56.27z"/>
	<path class="st0" d="M911.71,26.04l-66.04,65.58l-62.01,61.11l-58.37,57.12c-18.66,18.28-36.97,36.18-54.98,53.63l-1.11,1.07
		l-0.73-1.23l-29-48.57l-30.52-51.42l-32.19-54.54l-33.94-58.05l34.95,56.96l32.82,53.97l30.91,51.13l28.4,47.26
		c17.59-17.28,35.59-34.81,53.95-52.65l58.56-56.97l62.49-60.35L911.71,26.04z"/>
	<polygon class="st0" points="906.14,307.78 869.87,549.95 867.64,549.95 867.64,549.85 867.65,549.81 	"/>
	<polygon class="st0" points="158.79,613.59 158.62,615.97 157.11,615.86 106.59,345.28 	"/>
	<path class="st1" d="M884.44,743.95c-51.86,50.47-92.51,71.81-175.1,91.01c-82.59,19.21-191.75-9.92-213.83-16.65
		c-22.09-6.72-108.52-53.78-123.88-65.3c-15.37-11.52-82.59-45.14-107.56-50.9c-15.6-3.6-40.46-0.83-56.92,1.76
		c0.31-0.81,0.62-1.62,0.92-2.42c19.03-8.58,66.88-32.23,116.02-72.8c43.93-36.27,66.16-80.85,72-122.06
		c-5.78-81.73-55.99-65.71-55.99-65.71c10.03,13.04,26.68,49.75-16.49,123.91c-37.03,63.62-78.02,90.1-101.67,100.76
		c22.83-39.11,45.01-109.08,45.01-109.08s5.44-17.93-5.12-29.45c-10.56-11.52-26.89-12.16-34.25-12.16c-7.36,0-6.72,6.4-6.72,6.4
		c-0.32,8.64-5.12,22.73-5.12,22.73s0.32,3.04-5.92,17.93c-6.24,14.89-50.9,127.97-60.5,151.97
		c-9.6,24.01-33.85,101.31-33.85,101.31s-7.68,21.61,1.44,42.74c9.12,21.13,24.49,22.57,24.49,22.57l4.56-1.44
		c4.56-1.44,6.48-3.12,6.72-9.6c0.24-6.48,1.44-15.61,1.44-15.61s13.44-48.02,24.49-75.87c4.17-10.52,11.3-29.01,18.54-47.92
		c7.45-1.12,17.63-1.51,31.07,0.23c34.57,4.48,91.55,41.29,108.84,54.74c17.29,13.44,103.72,75.86,103.72,75.86
		s86.75,60.5,196.87,58.9c110.12-1.6,151.73-41.61,184.07-65.94c32.33-24.33,63.38-77.15,70.1-97.63
		C898.52,735.73,884.44,743.95,884.44,743.95"/>
	<path class="st2" d="M384.61,602.79c-4.23,10.58-14.92,44.63-14.92,44.63s-3.38,9.52,0.64,18.83c4.02,9.31,10.79,9.94,10.79,9.94
		l2.01-0.64c2.01-0.63,2.86-1.38,2.96-4.23c0.1-2.85,0.63-6.88,0.63-6.88s5.92-21.15,10.79-33.42c0.53-1.33,1.16-2.96,1.88-4.78
		c4.33-3.05,7.96-5.43,7.96-5.43c24.98-13.54,16.25,7.52,16.25,7.52s-16.85,44.55,2.11,44.55c13.91,0,23.44-9.71,27.53-14.89
		c0.02,0.34,0.02,0.7,0.05,1.02c0.97,9.14,6.61,13.61,10.01,13.51c3.4-0.1,10.89,1.46,18.95-8.46c2.95-3.62,5.11-6.54,6.67-8.81
		c0.01,0.31,0.01,0.62,0.03,0.94c0.68,11.08,8.94,12.25,17.01,9.53c8.07-2.72,16.23-13.61,16.23-13.61l0.52-0.9
		c-1.45,5.07-4.52,10.07-4.52,10.07s6.34,7.93,9.47,8.16c3.13,0.23,5.17-0.11,7.3-7.83c1.59-5.72,5.39-21.15,7.25-28.74
		c0.03-0.02,0.06-0.05,0.09-0.07c0.27-1.13,0.54-2.25,0.8-3.37c5.94-4.42,12.38-8.63,12.38-8.63c24.98-13.54,16.25,7.52,16.25,7.52
		s-16.85,44.55,2.11,44.55c14.69,0,24.5-10.83,28.17-15.71c2.52,5.93,6.96,8.83,9.93,8.75c3.98-0.11,12.72,1.7,22.15-9.88
		c1.95-2.39,3.59-4.51,4.99-6.39c0.02,0.17,0.03,0.34,0.06,0.49c2.07,13.94,21.01,10.2,21.01,10.2s11.53-4.98,16.49-12.28
		c2.21,4.45,5.68,6.63,8.07,6.57c3.4-0.1,10.89,1.46,18.96-8.46c2.95-3.62,5.1-6.54,6.67-8.81c0.01,0.31,0.02,0.62,0.04,0.93
		c0.68,11.08,8.94,12.25,17.01,9.53c8.07-2.72,16.23-13.61,16.23-13.61l3.96-6.82c-1.25,5.47-4.84,11.32-4.84,11.32
		s6.34,7.93,9.47,8.16c3.13,0.23,5.17-0.11,7.31-7.82c1.59-5.72,5.39-21.15,7.25-28.74c0.03-0.02,0.06-0.05,0.09-0.07
		c0.27-1.13,0.54-2.25,0.8-3.37c5.93-4.42,12.38-8.63,12.38-8.63c24.98-13.54,16.25,7.53,16.25,7.53s-16.85,44.55,2.11,44.55
		c18.96,0,29.8-18.06,29.8-18.06l1.68-3.44c-0.81,4.51-1.26,8.17-1,9.9c1.03,6.97,10.5,5.1,10.5,5.1s8.7-3.76,9.32-8.8
		c0.62-5.05-1.44-2.68-2.15-1.49c-0.71,1.18-2.95,1.86-2.95,1.86c-5.51,0.1-1.54-11.95-1.54-11.95l5.46-21.06
		c0,0,3.35-12.51,4.79-20.08c1.44-7.57-11.28-2.73-11.28-2.73c-0.62,0.22-0.42,0.36-0.42,0.36c1.12,3.47-2.46,13.9-2.46,13.9
		s-3.25,11.97-5.92,23.69c-1.14,1.8-2.28,3.61-3.43,5.41c-1.13,1.64-5.4,7.76-9.67,11.48c-0.99,0.86-2.21,1.8-3.98,2.26
		c-2.07,0.54-3.89,0.17-4.91-0.12c-0.22-0.01-0.55-0.05-0.88-0.22c-3.01-1.5-1.79-10.09-0.12-18.81
		c4.22-21.97-4.51-29.8-17.76-33.41c-6.95-1.9-14.65,2.43-20.39,6.96c0.59-5.07-0.96-6.14-3.41-7.19
		c-2.89-1.24-12.17,2.89-12.17,2.89s0.62,8.45-1.44,14.02c-0.85,2.3-2.16,7.24-3.4,12.24c-0.08,0.17-0.16,0.33-0.24,0.5
		c-0.48,2.03-0.95,4.03-1.34,5.86l0.27-2.08c0,0-0.29,2.43-6.81,11.66c-6.51,9.23-13.32,8.94-15.26,7.19
		c-1.94-1.75-0.97-8.65-0.97-8.65s9.43-35.24,10.35-37.23c0.92-1.99,0-1.62,0-1.62h-3.35c-8.67,0.12-12.08,6.95-12.52,7.91
		c-1.59-1.89-4.05-4.06-7.02-4.06c-5.25,0-15.94,1.94-24.79,10.98c-8.37,8.55-14.55,26.41-14.37,36.05
		c-0.04,0.07-0.08,0.13-0.12,0.2c-1.42,2.37-5.89,3.71-5.89,3.71c-11.02,0.21-3.09-23.89-3.09-23.89l10.92-42.12
		c0,0,6.69-25.02,9.58-40.16c2.88-15.14-22.55-5.46-22.55-5.46c-1.24,0.44-0.84,0.72-0.84,0.72c2.23,6.95-4.93,27.8-4.93,27.8
		s-4.2,15.46-8.61,33.7c-0.98-0.43-2.04-0.7-3.15-0.7c-6.13,0-18.63,2.27-28.97,12.84c-10.34,10.57-17.83,33.28-16.7,43.96
		c0.07,0.7,0.17,1.37,0.29,2.02c-2.65,2.82-5.85,5.25-9.7,6.57c-4.07,1.4-5.63,0.45-6.04,0.17c-3.07-2.14-2.1-8.49-0.12-18.81
		c4.22-21.97-4.51-29.8-17.76-33.41c-6.95-1.9-14.64,2.43-20.39,6.96c0.59-5.07-0.96-6.14-3.41-7.19
		c-2.89-1.24-12.17,2.89-12.17,2.89s0.62,8.45-1.44,14.02c-0.85,2.3-2.16,7.24-3.4,12.24c-0.08,0.17-0.16,0.33-0.24,0.5
		c-0.46,1.92-0.9,3.82-1.28,5.57c-0.9,1.43-2.03,3.14-3.49,5.2c-6.51,9.23-13.32,8.94-15.26,7.2c-1.94-1.75-0.97-8.65-0.97-8.65
		s9.43-35.24,10.35-37.23c0.92-1.99,0-1.62,0-1.62h-3.35c-8.68,0.12-12.08,6.96-12.52,7.91c-1.59-1.89-4.05-4.06-7.02-4.06
		c-5.25,0-15.94,1.94-24.79,10.98c-6.5,6.64-11.67,18.88-13.58,28.54c-2.1,3.62-5.83,8.24-11.54,9.29
		c-1.24,0.23-2.78,0.33-4.59,0.05c-0.31-0.03-0.76-0.12-1.21-0.39c-3.3-1.97-1.78-10.18-0.12-18.81
		c4.21-21.97-4.52-29.8-17.76-33.41c-4.13-1.13-8.52-0.06-12.61,1.95c5.09-13.31,10.16-26.66,10.16-26.66
		c10.15-17.13,20.1-48.51,20.1-48.51s2.4-7.9-2.26-12.97c-4.65-5.08-11.85-5.36-15.09-5.36c-3.24,0-2.96,2.82-2.96,2.82
		c-0.14,3.81-2.26,10.01-2.26,10.01s0.14,1.34-2.61,7.9C408.51,542.4,388.84,592.22,384.61,602.79 M703.49,603.39
		c14.09-10.98,14.09,4.66,14.09,4.67l-3.89,12.25c0,0-1.82,3.17-2.79,8.65c-2.7,4.46-8.32,12.79-13.54,14.48
		c-7.19,2.33-7.49-5.54-7.49-5.54S689.4,614.38,703.49,603.39 M633.9,606.06c6.82-5.31,10.81-5.29,13.15-3.44
		c-3.24,13.9-6.27,28.25-7.48,37.94c-3.46,5.02-8.28,10.82-12.83,12.3c-8.41,2.73-8.75-6.48-8.75-6.48S617.43,618.9,633.9,606.06
		 M482.06,621.31c14.09-10.98,14.09,4.67,14.09,4.67l-3.89,12.25c0,0-1.82,3.17-2.79,8.65c-2.7,4.46-8.32,12.79-13.54,14.48
		c-7.19,2.33-7.48-5.54-7.48-5.54S467.97,632.29,482.06,621.31"/>
	<path class="st3" d="M849.55,572.86c4.93,0,8.92-3.99,8.92-8.92c0-4.93-3.99-8.92-8.92-8.92c-4.93,0-8.92,3.99-8.92,8.92
		C840.63,568.87,844.62,572.86,849.55,572.86"/>
	<path class="st4" d="M252.97,656.71c-1.08,0.88-2.26,1.58-3.41,2.36l-3.46,2.29l-6.89,4.62c4.72-2.87,9.53-5.63,14.16-8.67
		l6.78-4.8c2.25-1.61,4.58-3.14,6.68-4.95l6.44-5.27c1.07-0.89,2.16-1.74,3.2-2.66l3.05-2.83l6.11-5.66
		c1.04-0.92,2.01-1.92,2.96-2.93l2.89-3c1.92-2.01,3.87-3.98,5.76-6.01l5.42-6.33c3.71-4.14,6.96-8.65,10.39-13.02
		c1.75-2.16,3.26-4.5,4.87-6.76c1.58-2.28,3.21-4.53,4.75-6.85l4.47-7.03l2.23-3.52l2.08-3.61c11.02-19.27,20.39-39.61,26.22-61.1
		c2.84-10.74,4.6-21.91,3.92-33.06c-0.32-5.56-1.16-11.1-2.73-16.44c-1.6-5.31-3.73-10.54-7.03-15.01c1.56,2.29,2.75,4.79,3.77,7.35
		c1.07,2.54,1.85,5.19,2.57,7.84c1.36,5.33,1.98,10.83,2.1,16.31c0.4,10.99-1.56,21.92-4.6,32.46
		c-6.19,21.11-15.44,41.31-26.56,60.29c-10.89,19.15-24.18,36.9-39.14,53.05l-2.8,3.04c-0.93,1.02-1.86,2.03-2.87,2.97l-5.94,5.75
		l-2.97,2.88c-1.01,0.93-2.08,1.81-3.12,2.71l-6.27,5.39c-2.03,1.87-4.28,3.47-6.46,5.16L252.97,656.71z"/>
	<path class="st4" d="M227.6,531.62c0.27-0.9,0.54-1.8,0.75-2.74c0.06-0.23,0.11-0.47,0.15-0.73l0.06-0.38
		c0.02-0.14,0.01-0.36,0.01-0.53c-0.05-0.56-0.2-0.89-0.22-1.34c-0.1-0.84,0-1.67,0.4-2.23c0.39-0.54,1.22-0.8,1.95-0.74l0.07,0
		l0.01,0l5.57,0.25c1.83,0.29,3.68,0.5,5.49,0.9l2.67,0.76c0.44,0.14,0.9,0.22,1.33,0.41l1.27,0.56c0.83,0.4,1.73,0.68,2.51,1.18
		l2.36,1.46c3,2.17,5.46,5.07,7.09,8.43c1.64,3.34,2.49,7.09,2.45,10.84c0.16-3.75-0.56-7.55-2.12-11
		c-1.54-3.46-4.01-6.49-7.04-8.79l-2.39-1.57c-0.79-0.53-1.7-0.84-2.55-1.27l-1.29-0.6c-0.43-0.21-0.9-0.3-1.35-0.46l-2.72-0.85
		c-1.84-0.45-3.73-0.72-5.6-1.06l-5.62-0.38c-1.1-0.1-2.28,0.19-3.08,1.14c-0.73,0.97-0.82,2.13-0.73,3.12
		c0,0.49,0.18,1.05,0.19,1.42c-0.02,0.06,0,0.08-0.01,0.17l-0.06,0.31c-0.03,0.2-0.08,0.42-0.14,0.64
		c-0.22,0.87-0.49,1.77-0.77,2.65c-1.12,3.54-2.39,7.05-3.66,10.56c-2.55,7.01-5.19,14-7.85,20.98l-16.09,41.82l-16.15,41.8
		l-8.09,20.9l-7.98,20.94l-15.83,41.94c-2.6,7-5.21,14-7.72,21.05c-1.25,3.52-2.48,7.05-3.67,10.61c-0.59,1.78-1.17,3.56-1.71,5.38
		c-0.54,1.86-0.93,3.63-1.46,5.42c-4.19,14.26-9.46,28.34-12.9,42.93c-1.73,7.28-3.12,14.68-3.51,22.18
		c-0.18,3.74-0.12,7.52,0.45,11.22c0.57,3.7,1.65,7.35,3.52,10.6c-1.76-3.3-2.71-6.97-3.16-10.65c-0.45-3.69-0.44-7.43-0.17-11.13
		c0.56-7.42,2.12-14.74,4.01-21.93c1.91-7.2,4.15-14.31,6.52-21.39c2.35-7.08,4.89-14.1,7.07-21.29c0.56-1.79,1-3.66,1.53-5.38
		c0.55-1.76,1.15-3.52,1.76-5.28c1.23-3.51,2.51-7.02,3.81-10.52l7.84-20.98l16.03-41.84l8.08-20.9l7.99-20.93l15.95-41.88
		c5.32-13.96,10.54-27.96,15.66-42c2.56-7.02,5.1-14.05,7.55-21.11C225.29,538.76,226.51,535.22,227.6,531.62"/>
	<path class="st4" d="M230.79,521.75l0.06,0c0,0,0.01,0,0.01,0L230.79,521.75z"/>
	<path class="st4" d="M767.12,827.55c-13.02,4.67-26.23,8.79-39.56,12.49c-6.66,1.85-13.36,3.57-20.08,5.19
		c-3.37,0.81-6.71,1.55-10.13,2.3l-10.09,2.38c-3.35,0.87-6.77,1.36-10.15,2.01c-3.4,0.6-6.77,1.31-10.21,1.68l-10.25,1.37
		l-10.31,0.88c-3.43,0.36-6.88,0.4-10.33,0.55c-3.45,0.12-6.89,0.32-10.34,0.22c-3.45-0.03-6.9-0.03-10.35-0.1l-10.33-0.53
		c-13.76-0.94-27.48-2.64-41.05-5.17c-13.55-2.6-26.97-5.9-40.21-9.82c-26.48-7.85-52.19-18.22-77.03-30.34
		c-24.84-12.14-48.76-26.1-72.02-41.08c-5.8-3.77-11.58-7.57-17.3-11.46c-2.88-1.92-5.7-3.92-8.6-5.82l-8.78-5.63
		c-11.93-7.15-24.46-13.24-37.39-18.29c-12.94-5.03-26.25-9.05-39.76-12.18c-13.51-3.07-27.2-5.47-41.02-6.53
		c13.79,1.28,27.43,3.89,40.86,7.17c13.43,3.33,26.63,7.56,39.43,12.76c12.81,5.18,25.22,11.31,36.98,18.52l8.66,5.66
		c2.87,1.92,5.69,3.96,8.55,5.9c5.7,3.95,11.46,7.81,17.23,11.64c23.14,15.28,47.18,29.24,72.07,41.55
		c24.91,12.24,50.72,22.74,77.34,30.72c13.33,3.91,26.85,7.19,40.51,9.77c13.67,2.5,27.49,4.18,41.36,5.09
		c27.74,1.66,55.79-0.22,82.87-6.5l10.11-2.47c3.35-0.77,6.76-1.56,10.11-2.4c6.73-1.68,13.43-3.47,20.1-5.38
		c13.33-3.83,26.55-8.06,39.55-12.89c12.99-4.84,25.78-10.27,38.15-16.53c12.32-6.33,24.31-13.48,34.9-22.44
		c-10.73,8.79-22.81,15.73-35.2,21.85C792.99,817.72,780.15,822.93,767.12,827.55"/>
	<path class="st4" d="M376.08,667.1c0.96,1.41,2.15,2.61,3.24,3.9c-1.04-1.33-2.18-2.59-3.07-4.01c-0.89-1.42-1.29-3.07-1.56-4.72
		c-0.25-1.65-0.48-3.34-0.55-4.99c0.05-1.61,0.5-3.27,0.91-4.89c1.72-6.5,3.93-12.88,6.11-19.26c4.43-12.74,9.03-25.41,13.76-38.04
		c4.64-12.66,9.45-25.27,14.23-37.88c2.39-6.3,4.79-12.61,7.3-18.87c1.26-3.13,2.47-6.3,3.42-9.54c0.46-1.63,0.89-3.27,1.18-4.93
		c0.25-1.66,0.51-3.38,0.21-5.04c0.23,1.67-0.09,3.36-0.41,5c-0.34,1.65-0.81,3.26-1.32,4.87c-1.04,3.2-2.33,6.31-3.69,9.39
		c-2.64,6.22-5.14,12.48-7.66,18.75c-4.99,12.54-9.78,25.16-14.53,37.79c-4.64,12.67-9.26,25.36-13.48,38.18
		c-2.07,6.43-4.16,12.85-5.76,19.43c-0.36,1.66-0.77,3.29-0.78,5.07c0.14,1.71,0.4,3.36,0.71,5.03
		C374.66,663.98,375.12,665.67,376.08,667.1"/>
	<path class="st4" d="M420.37,659.82c-0.1,1.32-0.16,2.66,0.21,4.06c1.1,2.83,3.98,4.12,6.6,4.3c2.67,0.16,5.27-0.41,7.74-1.22
		c-2.54,0.51-5.15,0.93-7.67,0.56c-1.25-0.17-2.46-0.55-3.49-1.22c-0.5-0.34-0.97-0.73-1.34-1.21c-0.2-0.22-0.36-0.48-0.52-0.74
		c-0.18-0.26-0.23-0.46-0.31-0.75c-0.24-1.13-0.15-2.44-0.05-3.69c0.12-1.27,0.32-2.54,0.55-3.81c0.47-2.53,1.06-5.05,1.71-7.55
		c0.61-2.51,1.29-5.01,2.02-7.5c0.36-1.24,0.74-2.48,1.13-3.72l0.6-1.84c0.16-0.65,0.39-1.29,0.49-1.95
		c1.02-5.25,0.35-10.58-1.03-15.58c0.44,2.56,0.74,5.15,0.75,7.73c0.06,2.57-0.11,5.16-0.73,7.62c-0.3,1.21-0.78,2.4-1.19,3.66
		c-0.41,1.24-0.82,2.48-1.2,3.72c-0.77,2.49-1.49,5-2.15,7.52c-0.62,2.54-1.18,5.09-1.62,7.68
		C420.66,657.19,420.48,658.5,420.37,659.82"/>
	<path class="st4" d="M575.79,668.77c2.67,0.16,5.27-0.41,7.74-1.21c-2.54,0.51-5.14,0.93-7.67,0.56c-1.25-0.17-2.46-0.55-3.49-1.22
		c-0.5-0.34-0.97-0.73-1.35-1.21c-0.2-0.23-0.36-0.48-0.52-0.74c-0.18-0.26-0.23-0.46-0.31-0.75c-0.24-1.13-0.15-2.44-0.05-3.69
		c0.12-1.27,0.32-2.54,0.55-3.8c0.47-2.53,1.06-5.05,1.71-7.55c0.62-2.51,1.29-5.01,2.02-7.5c0.36-1.24,0.74-2.48,1.13-3.71
		l0.6-1.85c0.17-0.65,0.39-1.29,0.49-1.95c1.02-5.25,0.35-10.58-1.03-15.58c0.44,2.56,0.73,5.15,0.76,7.73
		c0.06,2.57-0.11,5.16-0.73,7.62c-0.3,1.21-0.78,2.4-1.19,3.66c-0.42,1.24-0.81,2.48-1.2,3.72c-0.77,2.49-1.49,5-2.15,7.52
		c-0.62,2.54-1.18,5.09-1.62,7.68c-0.21,1.29-0.4,2.6-0.5,3.92c-0.09,1.32-0.16,2.66,0.21,4.06
		C570.29,667.29,573.17,668.58,575.79,668.77"/>
	<path class="st4" d="M799.66,646.35c2.67,0.16,5.27-0.41,7.74-1.22c-2.54,0.51-5.15,0.93-7.67,0.56c-1.25-0.17-2.46-0.55-3.49-1.22
		c-0.5-0.34-0.97-0.73-1.34-1.21c-0.2-0.22-0.36-0.48-0.52-0.74c-0.18-0.26-0.23-0.46-0.31-0.75c-0.24-1.13-0.15-2.44-0.05-3.69
		c0.12-1.27,0.32-2.54,0.55-3.8c0.47-2.53,1.07-5.05,1.72-7.55c0.61-2.51,1.29-5.01,2.02-7.5c0.36-1.24,0.74-2.48,1.13-3.71
		l0.6-1.85c0.16-0.65,0.39-1.29,0.49-1.95c1.02-5.25,0.35-10.58-1.03-15.58c0.44,2.57,0.73,5.15,0.75,7.73
		c0.06,2.58-0.11,5.16-0.73,7.62c-0.3,1.21-0.78,2.4-1.19,3.66c-0.42,1.24-0.82,2.48-1.2,3.73c-0.77,2.49-1.49,5-2.15,7.52
		c-0.62,2.54-1.18,5.09-1.62,7.68c-0.21,1.29-0.4,2.6-0.5,3.92c-0.09,1.32-0.16,2.66,0.21,4.06
		C794.16,644.88,797.04,646.17,799.66,646.35"/>
	<path class="st4" d="M457.14,659.86c0.03,0.75,0.08,1.62,0.35,2.4c0.48,1.57,1.43,2.99,2.68,4.02c1.26,1.03,2.77,1.66,4.31,2.03
		c3.12,0.6,6.26,0.28,9.27-0.38c-3.05,0.35-6.19,0.53-9.11-0.27c-1.44-0.42-2.81-1.06-3.91-2.04c-1.09-0.97-1.88-2.26-2.24-3.65
		c-0.21-0.7-0.21-1.38-0.22-2.17l-0.07-2.29l-0.07-2.29c0.03-0.76,0.11-1.52,0.17-2.28c0.14-1.52,0.16-3.05,0.51-4.53l0.42-2.24
		l0.21-1.12l0.32-1.09c1.48-5.9,4.27-11.43,7.87-16.36c1.77-2.49,3.83-4.77,6.02-6.91c2.18-2.16,4.56-4.12,7.13-5.84
		c-5.41,2.99-10.13,7.23-13.98,12.12c-3.86,4.89-6.72,10.6-8.35,16.64l-0.32,1.13l-0.2,1.16l-0.4,2.31
		c-0.34,1.53-0.34,3.1-0.47,4.66c-0.04,0.78-0.11,1.56-0.14,2.34l0.1,2.33L457.14,659.86z"/>
	<path class="st4" d="M677.76,642.56c0.03,0.75,0.08,1.62,0.35,2.4c0.48,1.57,1.43,2.99,2.68,4.02c1.26,1.04,2.77,1.66,4.3,2.03
		c3.11,0.61,6.26,0.28,9.27-0.38c-3.05,0.35-6.19,0.53-9.11-0.27c-1.44-0.42-2.82-1.06-3.91-2.04c-1.09-0.97-1.88-2.26-2.24-3.65
		c-0.21-0.69-0.21-1.38-0.22-2.17l-0.07-2.3l-0.07-2.29c0.03-0.76,0.11-1.52,0.16-2.28c0.14-1.52,0.15-3.04,0.51-4.53l0.42-2.24
		l0.21-1.12l0.32-1.09c1.48-5.91,4.27-11.43,7.87-16.36c1.77-2.49,3.83-4.77,6.02-6.91c2.18-2.17,4.57-4.12,7.13-5.84
		c-5.41,2.99-10.13,7.23-13.98,12.12c-3.86,4.9-6.73,10.59-8.35,16.64l-0.32,1.13l-0.21,1.16l-0.4,2.31
		c-0.34,1.53-0.34,3.1-0.46,4.66c-0.05,0.78-0.12,1.56-0.14,2.34l0.1,2.33L677.76,642.56z"/>
	<path class="st4" d="M494.96,661.98c0.36,0.16,0.72,0.33,1.08,0.48l1.13,0.29c0.75,0.24,1.53,0.21,2.28,0.32
		c3.06,0.12,6.05-0.46,8.96-1.17c-2.97,0.41-5.96,0.84-8.9,0.51c-0.72-0.14-1.47-0.14-2.15-0.4l-1.04-0.31
		c-0.33-0.15-0.64-0.32-0.96-0.48c-1.24-0.68-2.2-1.76-2.62-3.07c-0.22-0.65-0.31-1.35-0.31-2.04c-0.01-0.72,0.11-1.32,0.3-2.08
		l1.06-4.38l2.14-8.74c1.35-5.85,2.77-11.67,4.19-17.49c0.35-1.46,0.7-2.92,1.19-4.28c0.51-1.37,1.23-2.66,2.09-3.85
		c1.71-2.38,4.26-4.18,7.14-5.02c-2.96,0.55-5.7,2.27-7.66,4.62c-0.97,1.19-1.77,2.52-2.36,3.94c-0.58,1.44-0.99,2.89-1.4,4.33
		c-1.64,5.79-3.04,11.62-4.5,17.45l-2.03,8.78l-1,4.39c-0.42,1.48-0.43,3.23,0.16,4.73C492.33,660.03,493.55,661.28,494.96,661.98"
		/>
	<path class="st4" d="M716.49,644.49c0.36,0.16,0.72,0.33,1.08,0.48l1.13,0.29c0.75,0.24,1.52,0.21,2.28,0.32
		c3.06,0.11,6.05-0.46,8.96-1.17c-2.97,0.42-5.96,0.84-8.9,0.51c-0.72-0.15-1.47-0.14-2.15-0.4l-1.04-0.31
		c-0.33-0.15-0.64-0.32-0.95-0.48c-1.24-0.68-2.2-1.76-2.62-3.08c-0.22-0.65-0.31-1.35-0.31-2.04c-0.01-0.72,0.11-1.32,0.31-2.08
		l1.05-4.38l2.14-8.74c1.35-5.84,2.77-11.67,4.19-17.49c0.35-1.46,0.7-2.92,1.19-4.28c0.51-1.38,1.22-2.66,2.09-3.85
		c1.71-2.38,4.27-4.18,7.14-5.03c-2.96,0.55-5.7,2.27-7.66,4.62c-0.97,1.19-1.77,2.52-2.36,3.94c-0.58,1.44-0.99,2.89-1.4,4.33
		c-1.64,5.79-3.04,11.62-4.5,17.44l-2.03,8.77l-1,4.39c-0.42,1.48-0.43,3.23,0.16,4.73C713.85,642.55,715.08,643.79,716.49,644.49"
		/>
	<path class="st4" d="M531.1,635.96c1-4.07,1.8-8.14,2.51-12.25c0.71-4.1,1.34-8.22,1.74-12.37l-2.76,12.16
		c-0.95,4.04-1.78,8.13-2.8,12.12c-1,4.01-2.18,7.99-3.36,11.96c-0.59,1.99-1.21,3.97-1.84,5.95l-1.86,5.96
		c1.77-3.78,3.29-7.66,4.69-11.58C528.84,644,530.06,640.01,531.1,635.96"/>
	<path class="st4" d="M757.37,613.29c1-4.07,1.79-8.14,2.51-12.25c0.71-4.1,1.34-8.22,1.74-12.37l-2.76,12.16
		c-0.95,4.04-1.78,8.13-2.8,12.12c-1,4.01-2.18,7.99-3.36,11.96c-0.59,1.99-1.21,3.97-1.84,5.95l-1.86,5.95
		c1.77-3.78,3.29-7.65,4.69-11.58C755.1,621.33,756.33,617.34,757.37,613.29"/>
	<path class="st4" d="M607.61,654.79c1.75,2.74,4.31,5.07,7.42,6c-1.49-0.59-2.82-1.53-3.98-2.59c-1.15-1.09-2.09-2.38-2.86-3.74
		c-1.52-2.76-2.16-5.92-2.26-9.05c-0.06-6.3,1.56-12.57,3.74-18.51c1.12-2.96,2.38-5.88,3.96-8.64c1.57-2.75,3.4-5.35,5.41-7.8
		c4.09-4.86,9.22-8.79,14.77-11.99c-2.91,1.35-5.7,2.98-8.33,4.85c-2.61,1.9-5.04,4.07-7.22,6.46c-4.35,4.83-7.54,10.61-9.85,16.65
		c-1.07,3.06-2,6.15-2.64,9.34l-0.46,2.39c-0.15,0.8-0.19,1.62-0.28,2.42c-0.24,1.61-0.15,3.26-0.13,4.88
		C605.11,648.71,605.9,651.99,607.61,654.79"/>
	<path class="st4" d="M648.28,655.14c1.16,0.59,2.43,0.86,3.7,0.93c2.55,0.09,5.05-0.49,7.38-1.41c-2.37,0.8-4.88,1.25-7.36,1.09
		c-1.23-0.11-2.44-0.42-3.51-1.01c-1.01-0.65-1.93-1.49-2.41-2.61c-1.05-2.18-1.13-4.73-0.86-7.17c0.06-1.23,0.34-2.47,0.49-3.7
		c0.17-1.23,0.39-2.47,0.63-3.7c1.88-9.84,4.06-19.63,6.34-29.4c2.32-9.76,4.57-19.54,6.97-29.28l7.1-29.26l-0.01,0.04
		c0.48-1.27,0.84-2.56,1.13-3.88c0.28-1.31,0.49-2.64,0.55-3.98c0.05-1.34,0.01-2.7-0.3-4.01c-0.32-1.31-0.86-2.56-1.67-3.62
		c1.55,2.21,1.86,4.99,1.63,7.6c-0.1,1.32-0.35,2.62-0.68,3.9c-0.33,1.28-0.74,2.55-1.24,3.75l-0.01,0.02l0,0.02
		c-2.62,9.69-5.24,19.38-7.66,29.13c-2.42,9.74-4.88,19.48-7.06,29.28c-2.18,9.8-4.41,19.59-6.02,29.53
		c-0.22,1.24-0.41,2.48-0.55,3.74c-0.13,1.26-0.38,2.49-0.42,3.76c-0.21,2.51-0.12,5.19,1.12,7.51
		C646.13,653.59,647.17,654.5,648.28,655.14"/>
	<path class="st4" d="M843.71,581.9c-0.18-0.29-0.59-0.23-0.79-0.03c0.23-0.19,0.59-0.2,0.72,0.08c0.15,0.23,0.19,0.52,0.21,0.81
		c0.04,0.57,0.02,1.15-0.05,1.73c-0.11,1.15-0.33,2.3-0.56,3.44c-0.51,2.27-1.02,4.55-1.64,6.79c-1.24,4.49-2.55,8.99-3.69,13.53
		c-1.19,4.53-2.23,9.1-3.15,13.69c-0.95,4.59-1.78,9.2-2.35,13.86l-0.01,0.04l0,0.02c0.08,1.18,0.46,2.31,1.27,3.2
		c0.79,0.91,2.02,1.28,3.13,1.24c1.12-0.01,2.19-0.29,3.21-0.67c1.02-0.37,1.97-0.9,2.91-1.4c-0.99,0.42-1.98,0.84-3.01,1.13
		c-1.02,0.3-2.07,0.49-3.1,0.43c-1.03-0.04-2-0.46-2.61-1.21c-0.62-0.72-0.92-1.75-0.94-2.7c0.39-2.28,0.84-4.56,1.31-6.83
		c0.45-2.29,0.91-4.58,1.41-6.85c1.01-4.56,2.07-9.1,3.15-13.64c1.09-4.54,2.35-9.04,3.34-13.63c0.51-2.28,0.99-4.59,1.31-6.91
		c0.15-1.16,0.29-2.33,0.32-3.52c0.02-0.59,0.02-1.18-0.09-1.77C843.97,582.45,843.9,582.14,843.71,581.9"/>
	<path class="st4" d="M846.38,568.6c-1.03-1.09-1.69-2.54-1.73-3.99c-0.07-1.44,0.65-2.83,1.59-4.11c0.95-1.27,2.1-2.45,3.31-3.59
		c-1.53,0.68-2.93,1.67-4.11,2.92c-1.17,1.22-2.18,2.91-2.13,4.82c0.08,1.85,0.97,3.61,2.37,4.74c1.35,1.16,3.44,1.6,4.93,0.72
		C848.93,570.41,847.41,569.69,846.38,568.6"/>
	<path class="st5" d="M633.58,294.4c-3.9,29.12-14.29,55.57-34.25,77.67c-13.44,14.88-29.98,23.28-50.28,23.69
		c-3.02,0.06-6.43-0.6-8.62,2.13c-2.22,2.78-3.92,6.41-3.07,9.75c1.01,3.9,5.16,2.33,8,2.43c6.58,0.22,13.17,0.14,19.75,0.08
		c4.75-0.04,5.62,2.12,4.1,6.27c-3.24,8.85-13.08,15.99-22.77,16.3c-17,0.55-17,0.55-21.7,16.61c-0.37,1.26-0.77,2.52-1.16,3.78
		c-3.27,10.51-9.32,15.4-18.49,14.93c-0.29-1.03-0.58-2.06-0.88-3.1c-1.52-5.35-3.06-10.76-4.61-16.19
		c4.19-14.8,8.44-29.58,12.67-44.37c0.74-2.58,1.51-5.16,2.26-7.74c4.6-3.73,9.18-7.45,13.71-11.12l8.33-6.76
		c0.09-0.07,0.18-0.13,0.28-0.2c0.68-0.47,2.28-1.56,2.18-3.6c-0.01-0.07-0.01-0.13-0.02-0.2c26.53,1.5,44.67-13.71,60.89-32.38
		c5.95-6.85,11.65-14.05,15.43-22.51c-8.85,10.87-18.68,20.76-28.81,30.36c-8.89,8.42-19.22,14.56-30.6,18.92
		c-6.9,2.65-8.17,1.86-10.01-5.43c-4.39-17.42,3.4-34.92,19.68-44.15c7.85-4.45,16.27-7.67,24.53-11.24
		c10.71-4.61,21.04-9.89,30.1-17.4c5.81-4.82,9.86-10.94,13.35-17.81C636.17,280.38,634.5,287.54,633.58,294.4"/>
	<path class="st2" d="M539.07,363.75c-11.07-16.46-24.13-30.5-43.21-37.77c3.1,2.11,6.3,4.1,9.29,6.35
		c11.7,8.77,21.88,18.93,28.63,32.12c0.68,1.33,1.87,2.73,1.08,4.29c-0.91,1.79-2.78,1.14-4.13,0.79
		c-28.78-7.28-54.13-19.72-68.27-47.71c-6.43-12.72-5.32-13.89,8.71-13.45c15.51,0.48,29.72,5.08,42.87,13.19
		C529.65,331.18,535.83,346.51,539.07,363.75"/>
	<path class="st2" d="M549.83,280.64c-11.9,14.57-14.67,31.81-14.4,50.14c-5.51-7.35-7.33-15.4-6.64-23.99
		c1.42-17.79,11.37-30.99,23.98-42.39c9.43-8.52,9.98-8.2,12.66,4.69c4.53,21.83-2.85,40.07-17.43,56c-1,1.09-2.07,2.63-3.77,2.21
		c-2.18-0.53-1.91-2.77-2.17-4.37c-2.03-12.45-0.45-24.44,4.86-35.92C547.91,284.89,548.86,282.76,549.83,280.64"/>
	<path class="st6" d="M393.49,374.24c1.24-0.07,2.02-0.63,2.82-1.02c11.97-5.93,24.13-10.43,36.41-13.91
		c0.88-0.25,2.13-0.96,2.54-0.25c0.4,0.71-0.76,1.64-1.28,2.44c-4.39,6.82-9.26,13.23-16.25,18.29c-6.85,4.96-14.07,8.01-21.52,9.9
		c-9.39,2.39-18.78,4.09-28.08,8.66c-1.16,0.57-1.92,0.5-1.42-0.9c5.96-16.66,13.48-32.65,30.43-44.58
		c4.31-3.03,8.83-5.33,13.54-7.08c5.4-2.01,10.17-1.64,14.65-0.35c4.47,1.28,8.93,2.59,14.19,2.08c1.95-0.19,3.91-0.46,6.48-0.76
		c-1.59-2.22-3.41-3.46-5.53-4.32c-1.72-0.7-3.57-1.27-5.49-1.62c-6.51-1.18-9.74-5.31-10.89-11.35c-1.68-8.85,1.2-17.94,6.74-27.16
		c2.08-3.47,4.55-6.78,6.9-10.13c1.04-1.49,1.83-1.97,2.41-0.31c1.58,4.58,4.48,8.21,7.49,11.74c4.83,5.65,8,12.13,6.33,21.1
		c-0.68,3.65-2.34,7.22-3.95,10.78c-0.86,1.91-1.35,0.52-1.7,0.05c-3.99-5.31-7.13-11.19-9.59-17.53c-0.45-1.15-0.86-2.32-1.73-3.33
		c0.12,1.07,0.22,2.14,0.37,3.2c1.4,9.84,5.81,17.83,11.42,25.08c0.74,0.96,1.72,1.1,3.31,1.01c5.45-0.3,10.9-0.35,16.09,0.16
		c6.15,0.61,9.05,6.84,6.99,13.73c-5.18,17.34-10.39,34.68-15.6,52.02c-0.24,0.8-0.48,1.6-0.87,2.89c4.48-3.28,8.12-6.73,11.92-9.97
		c10.56-8.99,21.08-18.04,31.59-27.1c1.03-0.89,2-1.12,3.07-1.12c9.81,0,19.63-0.01,29.44,0.01c0.63,0,1.58-0.27,1.62,0.5
		c0.03,0.72-0.89,1.12-1.47,1.59c-14.9,12.08-29.78,24.17-44.73,36.18c-2.21,1.78-2.81,3.06-2.17,5.28
		c5.85,19.99,11.52,40.07,17.24,60.13c0.56,1.95,0.35,2.2-1.93,2.2c-9.67,0.02-19.33-0.02-29.01,0.04
		c-1.61,0.01-2.37-0.55-2.74-1.95c-3.37-12.79-6.65-25.63-10.29-38.28c-2.2-7.65-6.57-13.71-13.64-17.47
		c-5.15-2.74-11.02-3.39-18-0.53c-2.65,1.09-1.92-0.53-1.53-1.85c3.75-12.54,7.52-25.09,11.28-37.63
		c2.88-9.59,5.76-19.18,8.63-28.78c0.82-2.74,0.81-2.82-1.96-2.43c-7.23,1.02-14.45,3.59-21.66,6.2
		c-10.37,3.74-20.28,8.97-29.75,15.56C394.36,373.52,394.1,373.75,393.49,374.24"/>
	<path class="st5" d="M443.47,463.77c-2.7,8.91-12.26,16.27-21.03,16.19c-8.79-0.08-14.03-7.57-11.38-16.26
		c2.76-9.03,12.21-16.2,21.28-16.17C441.4,447.57,446.24,454.63,443.47,463.77"/>
	<polygon class="st6" points="506.43,748.79 477.07,751.36 471.99,780.94 452.02,782.69 466.03,702 521.44,697.15 518.35,714.64 
		482.81,717.75 480.05,733.88 509.41,731.31 	"/>
	<path class="st6" d="M561.39,692.88c17.73-1.55,26.6,4.92,26.6,19.41c0,2.43-0.26,5.07-0.77,7.9l-3.86,22.41
		c-1.77,10.38-5.59,18.3-11.48,23.74c-5.89,5.45-14.16,8.63-24.83,9.57c-10.67,0.93-18.1-0.88-22.29-5.44
		c-2.87-3.13-4.3-7.68-4.3-13.64c0-2.65,0.29-5.58,0.88-8.79l3.86-22.41C528.65,705.61,540.71,694.69,561.39,692.88 M550.02,758.55
		c3.68-0.32,6.62-1.54,8.83-3.64c2.21-2.11,3.75-5.77,4.64-11l3.75-21.52c0.22-1.49,0.33-2.82,0.33-4c0-5.96-3.02-8.68-9.05-8.15
		c-7.58,0.81-12.1,5.51-13.57,14.1l-3.75,21.52c-0.29,1.87-0.44,3.79-0.44,5.78C540.75,756.79,543.84,759.09,550.02,758.55"/>
	<path class="st6" d="M634.67,686.47c17.73-1.55,26.6,4.92,26.6,19.41c0,2.43-0.26,5.06-0.77,7.9l-3.86,22.41
		c-1.77,10.38-5.59,18.29-11.48,23.74c-5.89,5.45-14.16,8.63-24.83,9.57c-10.67,0.93-18.1-0.88-22.29-5.44
		c-2.87-3.13-4.3-7.68-4.3-13.64c0-2.65,0.29-5.58,0.88-8.8l3.86-22.41C601.93,699.2,613.99,688.28,634.67,686.47 M623.3,752.14
		c3.68-0.32,6.62-1.53,8.83-3.64c2.21-2.1,3.75-5.77,4.64-11l3.75-21.52c0.22-1.49,0.33-2.82,0.33-4c0-5.96-3.02-8.68-9.05-8.15
		c-7.58,0.81-12.1,5.51-13.57,14.1l-3.75,21.52c-0.3,1.87-0.44,3.79-0.44,5.78C614.03,750.37,617.12,752.68,623.3,752.14"/>
	<path class="st6" d="M709.93,680.66c9.64-0.84,16.52,0.98,20.64,5.48c3.02,3.42,4.53,7.88,4.53,13.4c0,1.99-0.18,4.1-0.55,6.34
		l-4.3,24.99c-1.47,8.44-5.08,15.42-10.82,20.92c-5.74,5.51-13.17,8.66-22.29,9.46l-32.12,2.81l14.02-80.69L709.93,680.66z
		 M702.98,698.49l-7.18,0.63l-7.83,45.71l10.49-0.92c3.46-0.3,6.16-1.48,8.11-3.52c1.95-2.05,3.29-5.24,4.03-9.57l3.2-18.38
		c0.29-1.64,0.44-3.13,0.44-4.45C714.24,701,710.48,697.83,702.98,698.49"/>
	<path class="st6" d="M759.92,733.12c0,5.08,3.66,7.29,10.98,6.65c7.32-0.64,10.98-3.24,10.98-7.8c0-2.43-1.25-4.31-3.76-5.63
		c-2.5-1.33-5.54-2.35-9.1-3.07c-3.57-0.72-7.14-1.6-10.7-2.65c-3.57-1.05-6.6-2.92-9.1-5.6c-2.5-2.69-3.75-6.2-3.75-10.54
		c0-18.47,11.88-28.74,35.65-30.82c8.68-0.76,15.25,0.3,19.7,3.19c4.45,2.88,6.68,7.24,6.68,13.05c0,2.13-0.28,4.2-0.83,6.2
		c-0.55,2-1.12,3.43-1.71,4.29l-0.88,1.4l-19.53,1.71c1.62-1.83,2.43-4.04,2.43-6.61c0-4.78-3.13-6.9-9.38-6.35
		c-7.87,0.69-11.81,3.53-11.81,8.54c0,2.5,1.25,4.38,3.75,5.63c2.5,1.25,5.53,2.15,9.1,2.68c3.57,0.54,7.15,1.27,10.76,2.21
		c3.6,0.94,6.66,2.75,9.16,5.43c2.5,2.69,3.75,6.35,3.75,10.98c0,9.34-2.8,16.52-8.39,21.54c-5.59,5.01-14.2,8.03-25.82,9.05
		c-11.63,1.02-19.57-0.35-23.84-4.09c-3.16-2.81-4.74-6.94-4.74-12.39c0-2.06,0.22-4.32,0.66-6.79l0.33-1.8l19.87-1.74l-0.22,1.35
		C760,731.87,759.92,732.54,759.92,733.12"/>
	<path class="st6" d="M870.48,748.47l-61.93,5.42c-1.54,0.14-2.59-1.04-2.31-2.6l6.58-37.88c0.27-1.57,1.76-2.96,3.3-3.09
		l61.93-5.42c1.54-0.13,2.58,1.04,2.31,2.6l-6.58,37.88C873.51,746.95,872.03,748.34,870.48,748.47"/>
	<path class="st7" d="M833.08,715.48c3.13-0.27,5.35,0.22,6.66,1.47c0.99,0.96,1.48,2.23,1.48,3.82c0,0.55-0.05,1.13-0.16,1.74
		l-0.37,2.01c-0.3,1.59-0.89,2.86-1.75,3.81c-0.86,0.95-1.63,1.46-2.28,1.52l-0.04,0.33c0.77-0.07,1.55,0.29,2.35,1.07
		c0.79,0.78,1.19,1.75,1.19,2.9c0,0.47-0.05,0.96-0.16,1.49l-0.25,1.3c-0.44,2.4-1.49,4.34-3.15,5.83
		c-1.66,1.49-3.97,2.36-6.93,2.62l-13.74,1.2l5.22-30.07L833.08,715.48z M830.49,722.13l-3.09,0.27l-1.07,6.22l3.04-0.27
		c2.63-0.23,3.95-1.5,3.95-3.8c0-0.8-0.24-1.42-0.72-1.87C832.13,722.23,831.42,722.04,830.49,722.13 M829.38,733.33l-3.91,0.34
		l-0.99,5.76l3.91-0.34c0.05,0,0.11-0.01,0.17-0.01c1.26-0.11,2.26-0.49,3-1.15c0.74-0.65,1.11-1.41,1.11-2.26
		C832.67,733.92,831.57,733.14,829.38,733.33"/>
	<path class="st7" d="M859.69,713.15c3.59-0.31,6.16,0.37,7.69,2.04c1.12,1.27,1.69,2.94,1.69,4.99c0,0.74-0.07,1.53-0.21,2.36
		l-1.6,9.31c-0.55,3.15-1.89,5.75-4.03,7.8c-2.14,2.05-4.91,3.23-8.31,3.52l-11.97,1.05l5.22-30.07L859.69,713.15z M857.1,719.8
		l-2.67,0.23l-2.92,17.04l3.91-0.34c1.29-0.11,2.3-0.55,3.02-1.31c0.73-0.76,1.23-1.95,1.5-3.57l1.19-6.85
		c0.11-0.61,0.16-1.17,0.16-1.66C861.3,720.73,859.9,719.55,857.1,719.8"/>
</g>
<g>
	<defs>
		<rect id="SVGID_3_" width="1000" height="1000"/>
	</defs>
	<clipPath id="SVGID_4_">
		<use xlink:href="#SVGID_3_"  style="overflow:visible;"/>
	</clipPath>
	<path class="st8" d="M873.72,965.81c2.67,0,4.54,0.74,5.62,2.22c0.81,1.05,1.21,2.33,1.21,3.84c0,0.62-0.07,1.27-0.2,1.94
		l-0.81,4.53c-0.46,2.59-1.65,4.57-3.58,5.96c-1.93,1.39-4.35,2.08-7.28,2.08c-2.92,0-5.17-0.58-6.73-1.74
		c-1.24-0.92-1.86-2.2-1.86-3.84c0-0.43,0.04-0.88,0.12-1.33l4.28-24.33h6.87l-2.06,11.76
		C870.45,966.17,871.92,965.81,873.72,965.81 M873.36,974.42c0.03-0.22,0.04-0.52,0.04-0.91c0-0.39-0.17-0.81-0.51-1.25
		c-0.34-0.44-1.06-0.67-2.18-0.67c-1.12,0-1.92,0.34-2.4,1.01l-1.17,6.75c0.32,0.81,1,1.21,2.02,1.21c2.07,0,3.3-1.04,3.68-3.11
		L873.36,974.42z"/>
	<path class="st8" d="M901.85,979.59c0,0.7,0.36,1.05,1.07,1.05c0.71,0,1.31-0.14,1.8-0.4l-0.2,4.57c-1.29,1.05-2.75,1.58-4.36,1.58
		c-2.97,0-4.61-1.08-4.93-3.23c-1.35,2.16-3.33,3.23-5.94,3.23c-4.42,0-6.63-1.9-6.63-5.7c0-0.65,0.07-1.36,0.2-2.14l0.85-4.73
		c0.43-2.43,1.42-4.36,2.97-5.8c1.55-1.44,3.7-2.16,6.45-2.16c1.7,0,3.04,0.36,4.04,1.09l2.06-11.8h6.91l-4.24,23.97
		C901.87,979.27,901.85,979.43,901.85,979.59 M889.89,977.65c-0.05,0.24-0.08,0.58-0.08,1.01c0,0.43,0.2,0.86,0.61,1.27
		c0.41,0.42,1.09,0.63,2.04,0.63c0.96,0,1.79-0.38,2.49-1.13l1.21-6.79c-0.29-0.67-1-1.01-2.1-1.01c-2.08,0-3.29,1-3.64,2.99
		L889.89,977.65z"/>
	<polygon class="st8" points="112.29,985.81 93.86,985.81 99,956.71 106.27,956.71 102.27,979.51 113.43,979.51 	"/>
	<path class="st8" d="M123.81,986.38c-5.6,0-8.41-1.94-8.41-5.82c0-0.54,0.05-1.12,0.16-1.74l0.85-5.01
		c0.46-2.59,1.65-4.57,3.58-5.96c1.93-1.39,4.48-2.08,7.66-2.08c5.42,0,8.12,2.05,8.12,6.14c0,0.59-0.06,1.24-0.16,1.94l-0.49,2.87
		H122.8l-0.16,0.93c-0.05,0.32-0.08,0.62-0.08,0.89c0,1.48,0.88,2.22,2.63,2.22c0.65,0,1.2-0.2,1.66-0.61
		c0.46-0.4,0.73-0.88,0.81-1.42l6.71,0.08C133.47,983.86,129.96,986.38,123.81,986.38 M128.66,974.25c0.11-0.46,0.16-0.88,0.16-1.27
		c0-0.39-0.18-0.79-0.53-1.19c-0.35-0.41-0.91-0.61-1.68-0.61c-0.77,0-1.47,0.26-2.1,0.77c-0.63,0.51-1.07,1.28-1.31,2.3H128.66z"/>
	<path class="st8" d="M156.91,979.59c0,0.7,0.36,1.05,1.07,1.05c0.71,0,1.31-0.14,1.8-0.4l-0.2,4.57c-1.29,1.05-2.75,1.58-4.37,1.58
		c-2.96,0-4.61-1.08-4.93-3.23c-1.35,2.16-3.33,3.23-5.94,3.23c-4.42,0-6.63-1.9-6.63-5.7c0-0.65,0.07-1.36,0.2-2.14l0.85-4.73
		c0.43-2.43,1.42-4.36,2.97-5.8c1.55-1.44,3.57-2.16,6.06-2.16c2.49,0,4.18,0.58,5.07,1.74l0.2-1.21h6.14l-2.26,12.73
		C156.93,979.27,156.91,979.43,156.91,979.59 M144.95,977.65c-0.05,0.24-0.08,0.58-0.08,1.01c0,0.43,0.2,0.85,0.61,1.27
		c0.4,0.42,1.08,0.63,2.04,0.63c0.96,0,1.78-0.38,2.49-1.13l1.21-6.79c-0.3-0.67-1-1.01-2.1-1.01c-2.07,0-3.29,1-3.64,2.99
		L144.95,977.65z"/>
	<path class="st8" d="M181.24,979.59c0,0.7,0.36,1.05,1.07,1.05c0.71,0,1.31-0.14,1.8-0.4l-0.2,4.57c-1.29,1.05-2.75,1.58-4.37,1.58
		c-2.96,0-4.61-1.08-4.93-3.23c-1.35,2.16-3.33,3.23-5.94,3.23c-4.42,0-6.63-1.9-6.63-5.7c0-0.65,0.07-1.36,0.2-2.14l0.85-4.73
		c0.43-2.43,1.42-4.36,2.97-5.8c1.55-1.44,3.7-2.16,6.45-2.16c1.7,0,3.05,0.36,4.04,1.09l2.06-11.8h6.91l-4.24,23.97
		C181.26,979.27,181.24,979.43,181.24,979.59 M169.28,977.65c-0.05,0.24-0.08,0.58-0.08,1.01c0,0.43,0.2,0.85,0.61,1.27
		c0.4,0.42,1.08,0.63,2.04,0.63c0.96,0,1.79-0.38,2.49-1.13l1.21-6.79c-0.3-0.67-1-1.01-2.1-1.01c-2.07,0-3.29,1-3.64,2.99
		L169.28,977.65z"/>
	<path class="st8" d="M218.06,980.64c0.62,0,1.17-0.14,1.66-0.4l-0.2,4.57c-1.27,1.05-2.71,1.58-4.32,1.58
		c-3.67,0-5.5-1.54-5.5-4.61c0-0.54,0.05-1.12,0.16-1.74l0.89-4.97c0.08-0.48,0.12-0.97,0.12-1.45c0-1.29-0.68-1.94-2.04-1.94
		c-1.36,0-2.42,0.46-3.17,1.37l-2.26,12.77h-6.87l5.42-30.68h6.87l-2.3,13.06c1.48-1.59,3.34-2.39,5.58-2.39
		c2.72,0,4.49,0.61,5.29,1.82c0.57,0.81,0.85,1.71,0.85,2.71c0,1-0.08,1.91-0.24,2.75l-1.09,6.02c-0.03,0.16-0.04,0.31-0.04,0.44
		C216.85,980.28,217.25,980.64,218.06,980.64"/>
	<path class="st8" d="M230.27,986.38c-5.6,0-8.41-1.94-8.41-5.82c0-0.54,0.05-1.12,0.16-1.74l0.85-5.01
		c0.46-2.59,1.65-4.57,3.58-5.96c1.93-1.39,4.48-2.08,7.66-2.08c5.42,0,8.12,2.05,8.12,6.14c0,0.59-0.06,1.24-0.16,1.94l-0.49,2.87
		h-12.33l-0.16,0.93c-0.05,0.32-0.08,0.62-0.08,0.89c0,1.48,0.88,2.22,2.63,2.22c0.65,0,1.2-0.2,1.66-0.61
		c0.46-0.4,0.73-0.88,0.81-1.42l6.71,0.08C239.93,983.86,236.41,986.38,230.27,986.38 M235.12,974.25c0.11-0.46,0.16-0.88,0.16-1.27
		c0-0.39-0.18-0.79-0.52-1.19c-0.35-0.41-0.91-0.61-1.68-0.61c-0.77,0-1.47,0.26-2.1,0.77c-0.63,0.51-1.07,1.28-1.31,2.3H235.12z"/>
	<path class="st8" d="M263.37,979.59c0,0.7,0.36,1.05,1.07,1.05c0.71,0,1.31-0.14,1.8-0.4l-0.2,4.57c-1.29,1.05-2.75,1.58-4.36,1.58
		c-2.96,0-4.61-1.08-4.93-3.23c-1.35,2.16-3.33,3.23-5.94,3.23c-4.42,0-6.63-1.9-6.63-5.7c0-0.65,0.07-1.36,0.2-2.14l0.85-4.73
		c0.43-2.43,1.42-4.36,2.97-5.8c1.55-1.44,3.57-2.16,6.06-2.16c2.49,0,4.18,0.58,5.07,1.74l0.2-1.21h6.14l-2.26,12.73
		C263.38,979.27,263.37,979.43,263.37,979.59 M251.4,977.65c-0.05,0.24-0.08,0.58-0.08,1.01c0,0.43,0.2,0.85,0.61,1.27
		c0.4,0.42,1.08,0.63,2.04,0.63c0.96,0,1.79-0.38,2.48-1.13l1.21-6.79c-0.3-0.67-1-1.01-2.1-1.01c-2.07,0-3.29,1-3.64,2.99
		L251.4,977.65z"/>
	<path class="st8" d="M276.26,979.59c0,0.7,0.36,1.05,1.07,1.05s1.31-0.14,1.8-0.4l-0.2,4.57c-1.29,1.05-2.75,1.58-4.36,1.58
		c-2.45,0-4.04-0.57-4.77-1.7c-0.46-0.73-0.69-1.52-0.69-2.39s0.05-1.62,0.16-2.26l4.41-24.9h6.87l-4.24,23.97
		C276.27,979.27,276.26,979.43,276.26,979.59"/>
	<path class="st8" d="M290.28,986.38c-3.13,0-5.38-0.7-6.75-2.1c-1.02-1.02-1.54-2.4-1.54-4.12c0-0.57,0.05-1.17,0.16-1.82
		l2.75-15.64l7.4-3.07l-1.17,6.75h11.15l-1.01,5.7h-11.15l-0.81,4.57c-0.11,0.51-0.16,0.97-0.16,1.38c0,1.7,0.81,2.55,2.43,2.55
		c0.86,0,1.58-0.36,2.16-1.09c0.58-0.73,0.98-1.7,1.19-2.91h6.71C300.51,983.11,296.72,986.38,290.28,986.38"/>
	<path class="st8" d="M324.8,980.64c0.62,0,1.17-0.14,1.66-0.4l-0.2,4.57c-1.27,1.05-2.71,1.58-4.33,1.58c-3.67,0-5.5-1.54-5.5-4.61
		c0-0.54,0.05-1.12,0.16-1.74l0.89-4.97c0.08-0.48,0.12-0.97,0.12-1.45c0-1.29-0.68-1.94-2.04-1.94c-1.36,0-2.42,0.46-3.17,1.37
		l-2.26,12.77h-6.87l5.42-30.68h6.87l-2.3,13.06c1.48-1.59,3.34-2.39,5.58-2.39c2.72,0,4.49,0.61,5.29,1.82
		c0.57,0.81,0.85,1.71,0.85,2.71c0,1-0.08,1.91-0.24,2.75l-1.09,6.02c-0.03,0.16-0.04,0.31-0.04,0.44
		C323.59,980.28,323.99,980.64,324.8,980.64"/>
	<path class="st8" d="M336.56,977.12c-0.08,0.48-0.12,0.97-0.12,1.46c0,1.29,0.73,1.94,2.18,1.94c1.18,0,2.17-0.42,2.95-1.25
		l2.26-12.89h6.87l-3.56,20.09c-0.59,3.42-1.95,6.13-4.06,8.12c-2.12,1.99-4.53,2.99-7.26,2.99c-2.72,0-4.68-0.5-5.88-1.49
		c-1.2-1-1.8-2.3-1.8-3.92c0-2.29,1.42-4.32,4.24-6.1c-1.54-0.38-2.51-1.14-2.91-2.3c-0.24-0.65-0.36-1.38-0.36-2.18
		c0-0.81,0.07-1.63,0.2-2.46l2.26-12.73h6.87L336.56,977.12z M336.76,991.8c1.75,0,2.9-1.59,3.44-4.77l0.4-2.34
		c-3.74,1.75-5.62,3.51-5.62,5.29c0,0.54,0.15,0.98,0.46,1.31C335.76,991.63,336.2,991.8,336.76,991.8"/>
	<path class="st8" d="M369.1,979.59c0,0.7,0.36,1.05,1.07,1.05s1.31-0.14,1.8-0.4l-0.2,4.57c-1.29,1.05-2.75,1.58-4.36,1.58
		c-2.45,0-4.04-0.57-4.77-1.7c-0.46-0.73-0.69-1.52-0.69-2.39s0.05-1.62,0.16-2.26l4.41-24.9h6.87l-4.24,23.97
		C369.11,979.27,369.1,979.43,369.1,979.59"/>
	<path class="st8" d="M383,980.64c0.62,0,1.17-0.13,1.66-0.4l-0.2,4.57c-1.27,1.05-2.71,1.58-4.32,1.58c-2.45,0-4.04-0.57-4.77-1.7
		c-0.48-0.75-0.73-1.55-0.73-2.4c0-0.85,0.05-1.6,0.16-2.24l2.42-13.66h6.87l-2.26,12.73c-0.03,0.16-0.04,0.31-0.04,0.44
		C381.79,980.28,382.19,980.64,383,980.64 M378.03,959.79c0-1.72,0.38-2.98,1.15-3.78s1.96-1.19,3.58-1.19c2.26,0,3.4,1,3.4,2.99
		c0,1.7-0.38,2.94-1.15,3.72c-0.77,0.78-1.97,1.17-3.62,1.17C379.14,962.7,378.03,961.73,378.03,959.79"/>
	<path class="st8" d="M404.7,986.54c0,3.93-1,7.16-3.01,9.68c-2.01,2.52-4.73,3.78-8.16,3.78c-3.43,0-5.72-0.85-6.85-2.55
		c-0.7-1.08-1.05-2.39-1.05-3.94s0.13-3.09,0.4-4.63l5.17-29.26h6.87l-1.21,6.75h10.06l-1.01,5.7h-7.92
		c1.91,1.54,3.51,3.53,4.79,5.98C404.06,980.51,404.7,983.34,404.7,986.54 M396.7,992.2c0.59-1.35,0.89-3.12,0.89-5.32
		c0-2.2-0.22-4.41-0.67-6.65c-0.45-2.24-0.98-3.99-1.6-5.26l-2.42,13.86c-0.16,0.94-0.24,1.76-0.24,2.46c0,1.94,0.63,2.91,1.9,2.91
		C395.39,994.22,396.11,993.55,396.7,992.2"/>
	<path class="st8" d="M416.26,986.38c-5.61,0-8.41-1.94-8.41-5.82c0-0.54,0.05-1.12,0.16-1.74l0.85-5.01
		c0.46-2.59,1.65-4.57,3.58-5.96c1.93-1.39,4.48-2.08,7.66-2.08c5.42,0,8.12,2.05,8.12,6.14c0,0.59-0.05,1.24-0.16,1.94l-0.49,2.87
		h-12.33l-0.16,0.93c-0.05,0.32-0.08,0.62-0.08,0.89c0,1.48,0.88,2.22,2.63,2.22c0.65,0,1.2-0.2,1.66-0.61
		c0.46-0.4,0.73-0.88,0.81-1.42l6.71,0.08C425.92,983.86,422.4,986.38,416.26,986.38 M421.11,974.25c0.11-0.46,0.16-0.88,0.16-1.27
		c0-0.39-0.18-0.79-0.52-1.19c-0.35-0.41-0.91-0.61-1.68-0.61s-1.47,0.26-2.1,0.77c-0.63,0.51-1.07,1.28-1.31,2.3H421.11z"/>
	<path class="st8" d="M473.13,966.37c0.38,1.13,0.57,2.63,0.57,4.51c0,1.87-0.23,3.67-0.69,5.4c-0.46,1.73-1.15,3.36-2.08,4.91
		c-0.93,1.55-2.22,2.8-3.88,3.76c-1.66,0.96-3.56,1.43-5.72,1.43c-3.23,0-5.39-0.9-6.47-2.71c-1.94,1.81-4.11,2.71-6.51,2.71
		c-3.23,0-5.46-0.69-6.67-2.06c-0.81-0.92-1.21-2.28-1.21-4.08c0-0.94,0.11-1.99,0.32-3.15l1.9-10.71h6.87l-1.9,10.75
		c-0.08,0.4-0.12,0.77-0.12,1.09c0,1.54,0.79,2.3,2.38,2.3c1.1,0,1.94-0.48,2.51-1.44c0.57-0.95,1.05-2.63,1.46-5.03l1.37-7.68h6.87
		l-1.9,10.75c-0.08,0.4-0.12,0.77-0.12,1.09c0,1.54,0.79,2.3,2.38,2.3c2.8,0,4.2-2.94,4.2-8.81c0-1.38-0.11-2.9-0.32-4.57
		l-0.12-0.77H473.13z"/>
	<path class="st8" d="M484.52,980.64c0.62,0,1.17-0.13,1.66-0.4l-0.2,4.57c-1.27,1.05-2.71,1.58-4.32,1.58
		c-2.45,0-4.04-0.57-4.77-1.7c-0.48-0.75-0.73-1.55-0.73-2.4c0-0.85,0.05-1.6,0.16-2.24l2.42-13.66h6.87l-2.26,12.73
		c-0.03,0.16-0.04,0.31-0.04,0.44C483.31,980.28,483.71,980.64,484.52,980.64 M479.55,959.79c0-1.72,0.38-2.98,1.15-3.78
		c0.77-0.79,1.96-1.19,3.58-1.19c2.26,0,3.4,1,3.4,2.99c0,1.7-0.39,2.94-1.15,3.72c-0.77,0.78-1.98,1.17-3.62,1.17
		C480.67,962.7,479.55,961.73,479.55,959.79"/>
	<path class="st8" d="M497.29,986.38c-3.13,0-5.38-0.7-6.75-2.1c-1.02-1.02-1.54-2.4-1.54-4.12c0-0.57,0.05-1.17,0.16-1.82
		l2.75-15.64l7.4-3.07l-1.17,6.75h11.15l-1.01,5.7h-11.15l-0.81,4.57c-0.11,0.51-0.16,0.97-0.16,1.38c0,1.7,0.81,2.55,2.43,2.55
		c0.86,0,1.58-0.36,2.16-1.09c0.58-0.73,0.98-1.7,1.19-2.91h6.71C507.52,983.11,503.73,986.38,497.29,986.38"/>
	<path class="st8" d="M531.81,980.64c0.62,0,1.17-0.14,1.66-0.4l-0.2,4.57c-1.27,1.05-2.71,1.58-4.33,1.58
		c-3.66,0-5.5-1.54-5.5-4.61c0-0.54,0.05-1.12,0.16-1.74l0.89-4.97c0.08-0.48,0.12-0.97,0.12-1.45c0-1.29-0.68-1.94-2.04-1.94
		c-1.36,0-2.42,0.46-3.17,1.37l-2.26,12.77h-6.87l5.42-30.68h6.87l-2.3,13.06c1.48-1.59,3.34-2.39,5.58-2.39
		c2.72,0,4.49,0.61,5.3,1.82c0.57,0.81,0.85,1.71,0.85,2.71c0,1-0.08,1.91-0.24,2.75l-1.09,6.02c-0.03,0.16-0.04,0.31-0.04,0.44
		C530.6,980.28,531,980.64,531.81,980.64"/>
	<path class="st8" d="M564.91,980.64c0.62,0,1.17-0.14,1.66-0.4l-0.2,4.57c-1.27,1.05-2.82,1.58-4.65,1.58
		c-1.83,0-3.19-0.48-4.06-1.46c-0.88-0.97-1.56-2.6-2.04-4.89l-0.12-0.57c-0.57,0.08-1.41,0.15-2.55,0.2l-1.09,6.14h-6.87
		l5.42-30.68h6.87l-2.34,13.3c1.59-1.75,3.74-2.63,6.47-2.63c1.83,0,3.19,0.45,4.06,1.35c0.88,0.9,1.31,2.11,1.31,3.62
		c0,2.91-1.52,5.19-4.57,6.83l0.44,1.5C562.94,980.13,563.7,980.64,564.91,980.64 M557.92,971.3c-1.46,0-2.75,0.69-3.88,2.06
		l-0.44,2.67c3.99-0.16,5.98-1.23,5.98-3.19c0-0.46-0.14-0.83-0.42-1.11C558.87,971.45,558.46,971.3,557.92,971.3"/>
	<path class="st8" d="M590.86,980.64c0.62,0,1.17-0.14,1.66-0.4l-0.2,4.57c-1.27,1.05-2.71,1.58-4.32,1.58
		c-3.67,0-5.5-1.54-5.5-4.61c0-0.54,0.05-1.12,0.16-1.74l0.89-4.97c0.08-0.48,0.12-0.97,0.12-1.45c0-1.29-0.68-1.94-2.04-1.94
		c-1.36,0-2.42,0.46-3.17,1.37l-2.26,12.77h-6.87l5.42-30.68h6.87l-2.3,13.06c1.48-1.59,3.34-2.39,5.58-2.39
		c2.72,0,4.49,0.61,5.29,1.82c0.57,0.81,0.85,1.71,0.85,2.71c0,1-0.08,1.91-0.24,2.75l-1.09,6.02c-0.03,0.16-0.04,0.31-0.04,0.44
		C589.64,980.28,590.05,980.64,590.86,980.64"/>
	<path class="st8" d="M613.85,979.59c0,0.7,0.36,1.05,1.07,1.05c0.71,0,1.31-0.14,1.8-0.4l-0.2,4.57c-1.29,1.05-2.75,1.58-4.36,1.58
		c-2.96,0-4.61-1.08-4.93-3.23c-1.35,2.16-3.33,3.23-5.94,3.23c-4.42,0-6.63-1.9-6.63-5.7c0-0.65,0.07-1.36,0.2-2.14l0.85-4.73
		c0.43-2.43,1.42-4.36,2.97-5.8c1.55-1.44,3.57-2.16,6.06-2.16c2.49,0,4.18,0.58,5.07,1.74l0.2-1.21h6.14l-2.26,12.73
		C613.87,979.27,613.85,979.43,613.85,979.59 M601.89,977.65c-0.06,0.24-0.08,0.58-0.08,1.01c0,0.43,0.2,0.85,0.61,1.27
		c0.41,0.42,1.09,0.63,2.04,0.63s1.78-0.38,2.49-1.13l1.21-6.79c-0.3-0.67-1-1.01-2.1-1.01c-2.08,0-3.29,1-3.64,2.99L601.89,977.65z
		"/>
	<path class="st8" d="M632.24,973.41c0-1.16-0.56-1.74-1.68-1.74c-1.12,0-2.04,0.42-2.77,1.25l-2.26,12.89h-6.87l3.43-19.44h6.39
		l-0.45,2.38c1.59-1.97,3.6-2.95,6.02-2.95c2.43,0,4,0.59,4.73,1.78c0.46,0.76,0.69,1.62,0.69,2.59c0,0.97-0.07,1.87-0.2,2.71
		l-1.09,6.22c-0.03,0.16-0.04,0.31-0.04,0.45c0,0.73,0.41,1.09,1.21,1.09c0.62,0,1.17-0.13,1.66-0.4l-0.2,4.57
		c-1.27,1.05-2.71,1.58-4.33,1.58c-3.66,0-5.5-1.54-5.5-4.61c0-0.54,0.05-1.12,0.16-1.74l0.97-5.38
		C632.2,974.17,632.24,973.76,632.24,973.41"/>
	<path class="st8" d="M662.35,979.59c0,0.7,0.36,1.05,1.07,1.05c0.71,0,1.31-0.14,1.8-0.4l-0.2,4.57c-1.29,1.05-2.75,1.58-4.36,1.58
		c-2.96,0-4.61-1.08-4.93-3.23c-1.35,2.16-3.33,3.23-5.94,3.23c-4.42,0-6.63-1.9-6.63-5.7c0-0.65,0.07-1.36,0.2-2.14l0.85-4.73
		c0.43-2.43,1.42-4.36,2.97-5.8c1.55-1.44,3.7-2.16,6.45-2.16c1.7,0,3.04,0.36,4.04,1.09l2.06-11.8h6.91l-4.24,23.97
		C662.37,979.27,662.35,979.43,662.35,979.59 M650.39,977.65c-0.06,0.24-0.08,0.58-0.08,1.01c0,0.43,0.2,0.85,0.61,1.27
		c0.4,0.42,1.08,0.63,2.04,0.63c0.96,0,1.78-0.38,2.49-1.13l1.21-6.79c-0.3-0.67-1-1.01-2.1-1.01c-2.08,0-3.29,1-3.64,2.99
		L650.39,977.65z"/>
	<path class="st8" d="M687.29,979.59c0,0.7,0.36,1.05,1.07,1.05c0.71,0,1.31-0.14,1.8-0.4l-0.2,4.57c-1.29,1.05-2.75,1.58-4.36,1.58
		c-2.96,0-4.61-1.08-4.93-3.23c-1.35,2.16-3.33,3.23-5.94,3.23c-4.42,0-6.63-1.9-6.63-5.7c0-0.65,0.07-1.36,0.2-2.14l0.85-4.73
		c0.43-2.43,1.42-4.36,2.97-5.8c1.55-1.44,3.57-2.16,6.06-2.16c2.49,0,4.18,0.58,5.07,1.74l0.2-1.21h6.14l-2.26,12.73
		C687.3,979.27,687.29,979.43,687.29,979.59 M675.33,977.65c-0.06,0.24-0.08,0.58-0.08,1.01c0,0.43,0.2,0.85,0.61,1.27
		c0.41,0.42,1.09,0.63,2.04,0.63c0.96,0,1.79-0.38,2.49-1.13l1.21-6.79c-0.3-0.67-1-1.01-2.1-1.01c-2.08,0-3.29,1-3.64,2.99
		L675.33,977.65z"/>
	<path class="st8" d="M705.68,973.41c0-1.16-0.56-1.74-1.68-1.74s-2.04,0.42-2.77,1.25l-2.26,12.89h-6.87l3.44-19.44h6.39
		l-0.44,2.38c1.59-1.97,3.6-2.95,6.02-2.95c2.43,0,4,0.59,4.73,1.78c0.46,0.76,0.69,1.62,0.69,2.59c0,0.97-0.07,1.87-0.2,2.71
		l-1.09,6.22c-0.03,0.16-0.04,0.31-0.04,0.45c0,0.73,0.4,1.09,1.21,1.09c0.62,0,1.17-0.13,1.66-0.4l-0.2,4.57
		c-1.27,1.05-2.71,1.58-4.32,1.58c-3.66,0-5.5-1.54-5.5-4.61c0-0.54,0.05-1.12,0.16-1.74l0.97-5.38
		C705.64,974.17,705.68,973.76,705.68,973.41"/>
	<path class="st8" d="M725.36,980.64c0.62,0,1.17-0.13,1.66-0.4l-0.2,4.57c-1.27,1.05-2.71,1.58-4.32,1.58
		c-2.45,0-4.04-0.57-4.77-1.7c-0.48-0.75-0.73-1.55-0.73-2.4c0-0.85,0.05-1.6,0.16-2.24l2.42-13.66h6.87l-2.26,12.73
		c-0.03,0.16-0.04,0.31-0.04,0.44C724.15,980.28,724.55,980.64,725.36,980.64 M720.39,959.79c0-1.72,0.38-2.98,1.15-3.78
		c0.77-0.79,1.96-1.19,3.58-1.19c2.26,0,3.39,1,3.39,2.99c0,1.7-0.39,2.94-1.15,3.72c-0.77,0.78-1.97,1.17-3.62,1.17
		C721.51,962.7,720.39,961.73,720.39,959.79"/>
	<path class="st8" d="M756.76,986.54c0,3.93-1,7.16-3.01,9.68c-2.01,2.52-4.73,3.78-8.16,3.78c-3.43,0-5.72-0.85-6.85-2.55
		c-0.7-1.08-1.05-2.39-1.05-3.94s0.14-3.09,0.4-4.63l5.17-29.26h6.87l-1.21,6.75h10.07l-1.01,5.7h-7.92
		c1.91,1.54,3.51,3.53,4.79,5.98C756.12,980.51,756.76,983.34,756.76,986.54 M748.76,992.2c0.59-1.35,0.89-3.12,0.89-5.32
		c0-2.2-0.22-4.41-0.67-6.65c-0.45-2.24-0.98-3.99-1.6-5.26l-2.43,13.86c-0.16,0.94-0.24,1.76-0.24,2.46c0,1.94,0.63,2.91,1.9,2.91
		C747.45,994.22,748.17,993.55,748.76,992.2"/>
	<path class="st8" d="M772.24,965.81c2.91,0,5.11,0.63,6.59,1.9c1.16,1,1.74,2.39,1.74,4.16c0,0.59-0.07,1.24-0.2,1.94l-0.85,4.73
		c-0.51,2.86-1.71,4.88-3.58,6.06c-1.87,1.19-4.37,1.78-7.5,1.78c-3.13,0-5.42-0.59-6.87-1.78c-1.08-0.89-1.62-2.22-1.62-4
		c0-0.62,0.07-1.31,0.2-2.06l0.85-4.73C761.95,968.48,765.7,965.81,772.24,965.81 M773.33,974.62c0.05-0.27,0.08-0.61,0.08-1.03
		c0-0.42-0.18-0.88-0.53-1.4c-0.35-0.51-0.96-0.77-1.84-0.77c-0.88,0-1.61,0.29-2.2,0.87c-0.59,0.58-0.97,1.35-1.13,2.32l-0.53,3.03
		c-0.05,0.27-0.08,0.62-0.08,1.03c0,0.42,0.18,0.87,0.53,1.35c0.35,0.49,0.96,0.73,1.84,0.73c0.88,0,1.61-0.3,2.2-0.91
		c0.59-0.61,0.97-1.34,1.13-2.2L773.33,974.62z"/>
	<path class="st8" d="M795.04,965.81c2.91,0,5.11,0.63,6.59,1.9c1.16,1,1.74,2.39,1.74,4.16c0,0.59-0.07,1.24-0.2,1.94l-0.85,4.73
		c-0.51,2.86-1.71,4.88-3.58,6.06c-1.87,1.19-4.37,1.78-7.5,1.78c-3.13,0-5.42-0.59-6.87-1.78c-1.08-0.89-1.62-2.22-1.62-4
		c0-0.62,0.07-1.31,0.2-2.06l0.85-4.73C784.74,968.48,788.49,965.81,795.04,965.81 M796.13,974.62c0.05-0.27,0.08-0.61,0.08-1.03
		c0-0.42-0.18-0.88-0.53-1.4c-0.35-0.51-0.96-0.77-1.84-0.77c-0.88,0-1.61,0.29-2.2,0.87c-0.59,0.58-0.97,1.35-1.13,2.32l-0.53,3.03
		c-0.05,0.27-0.08,0.62-0.08,1.03c0,0.42,0.18,0.87,0.53,1.35c0.35,0.49,0.96,0.73,1.84,0.73c0.88,0,1.61-0.3,2.2-0.91
		c0.59-0.61,0.97-1.34,1.13-2.2L796.13,974.62z"/>
	<path class="st8" d="M824.7,979.59c0,0.7,0.36,1.05,1.07,1.05c0.71,0,1.31-0.14,1.8-0.4l-0.2,4.57c-1.29,1.05-2.75,1.58-4.36,1.58
		c-2.96,0-4.61-1.08-4.93-3.23c-1.35,2.16-3.33,3.23-5.94,3.23c-4.42,0-6.63-1.9-6.63-5.7c0-0.65,0.07-1.36,0.2-2.14l0.85-4.73
		c0.43-2.43,1.42-4.36,2.97-5.8c1.55-1.44,3.7-2.16,6.45-2.16c1.7,0,3.04,0.36,4.04,1.09l2.06-11.8h6.91l-4.24,23.97
		C824.72,979.27,824.7,979.43,824.7,979.59 M812.74,977.65c-0.06,0.24-0.08,0.58-0.08,1.01c0,0.43,0.2,0.85,0.61,1.27
		c0.4,0.42,1.08,0.63,2.04,0.63c0.96,0,1.78-0.38,2.49-1.13l1.21-6.79c-0.3-0.67-1-1.01-2.1-1.01c-2.08,0-3.29,1-3.64,2.99
		L812.74,977.65z"/>
	<path class="st8" d="M851.06,970.58c0,0.89-0.27,1.71-0.81,2.47h-6.63c0.21-0.16,0.32-0.43,0.32-0.81c0-0.38-0.22-0.68-0.65-0.91
		c-0.43-0.23-0.98-0.34-1.66-0.34c-2.02,0-3.03,0.62-3.03,1.86c0,0.48,0.38,0.83,1.13,1.05c0.75,0.22,1.67,0.39,2.75,0.53
		s2.16,0.33,3.23,0.59c1.08,0.26,2,0.76,2.75,1.52c0.75,0.75,1.13,1.76,1.13,3.03c0,2.24-0.9,3.93-2.69,5.09
		c-1.79,1.16-4.4,1.74-7.82,1.74c-3.42,0-5.82-0.55-7.2-1.66c-1.08-0.86-1.62-2.05-1.62-3.56c0-0.43,0.04-0.88,0.12-1.33l6.75-0.08
		c-0.05,0.38,0.17,0.71,0.67,0.99c0.5,0.28,1.23,0.42,2.2,0.42c0.97,0,1.67-0.1,2.1-0.3c0.43-0.2,0.65-0.59,0.65-1.15
		c0-0.38-0.38-0.64-1.13-0.79c-0.76-0.15-1.68-0.28-2.77-0.38c-1.09-0.11-2.18-0.28-3.27-0.53c-1.09-0.24-2.02-0.75-2.77-1.54
		c-0.76-0.78-1.13-1.8-1.13-3.07c0-2.45,0.95-4.34,2.85-5.66c1.9-1.32,4.64-1.98,8.23-1.98
		C848.29,965.77,851.06,967.37,851.06,970.58"/>
</g>
</svg>
